<svg width="91" height="97" viewBox="0 0 91 97" fill="none" xmlns="http://www.w3.org/2000/svg">
<path d="M82.7273 -1H8.27273C3.72273 -1 0 4.18823 0 10.5294V85.4706C0 91.8118 3.72273 97 8.27273 97H82.7273C87.2773 97 91 91.8118 91 85.4706V10.5294C91 4.18823 87.2773 -1 82.7273 -1ZM8.27273 85.4706V10.5294H41.3636V85.4706H8.27273ZM82.7273 85.4706H49.6364V10.5294H82.7273V85.4706ZM56 30.7059H76.5V39.3529H56V30.7059ZM56 45.1176H76.5V53.7647H56V45.1176ZM56 59.5294H76.5V68.1765H56V59.5294Z" fill="#21A8FB"/>
</svg>
