<svg width="105" height="105" viewBox="0 0 105 105" fill="none" xmlns="http://www.w3.org/2000/svg">
<path d="M95.8182 3H13.1818C8.13182 3 4 7.92353 4 13.9412V85.0588C4 91.0765 8.13182 96 13.1818 96H95.8182C100.868 96 105 91.0765 105 85.0588V13.9412C105 7.92353 100.868 3 95.8182 3ZM13.1818 85.0588V13.9412H49.9091V85.0588H13.1818ZM95.8182 85.0588H59.0909V13.9412H95.8182V85.0588ZM63.6818 33.0882H91.2273V41.2941H63.6818V33.0882ZM63.6818 46.7647H91.2273V54.9706H63.6818V46.7647ZM63.6818 60.4412H91.2273V68.6471H63.6818V60.4412Z" fill="#B3EA99"/>
</svg>
