<svg width="19" height="18" viewBox="0 0 19 18" fill="none" xmlns="http://www.w3.org/2000/svg">
<path d="M16.3281 1.96875H2.67188C2.34346 1.96875 2.07812 2.22012 2.07812 2.53125V15.4688C2.07812 15.7799 2.34346 16.0312 2.67188 16.0312H16.3281C16.6565 16.0312 16.9219 15.7799 16.9219 15.4688V2.53125C16.9219 2.22012 16.6565 1.96875 16.3281 1.96875ZM14.6137 6.07324H13.428C12.4984 6.07324 12.3185 6.4916 12.3185 7.10684V8.46211H14.5376L14.2481 10.5838H12.3185V16.0312H10.0047V10.5855H8.06943V8.46211H10.0047V6.89766C10.0047 5.08184 11.1755 4.09219 12.8862 4.09219C13.7063 4.09219 14.4096 4.1502 14.6155 4.17656V6.07324H14.6137Z" fill="black"/>
</svg>
