<svg width="17" height="16" viewBox="0 0 17 16" fill="none" xmlns="http://www.w3.org/2000/svg">
<path d="M5.66735 8C5.66735 6.5273 6.93554 5.33312 8.50034 5.33312C10.0651 5.33312 11.334 6.5273 11.334 8C11.334 9.4727 10.0651 10.6669 8.50034 10.6669C6.93554 10.6669 5.66735 9.4727 5.66735 8ZM4.13551 8C4.13551 10.2688 6.08962 12.1079 8.50034 12.1079C10.9111 12.1079 12.8652 10.2688 12.8652 8C12.8652 5.73118 10.9111 3.89208 8.50034 3.89208C6.08962 3.89208 4.13551 5.73118 4.13551 8ZM12.0179 3.72924C12.0179 4.25913 12.4745 4.6895 13.0382 4.6895C13.6012 4.6895 14.0585 4.25913 14.0585 3.72924C14.0585 3.19935 13.6019 2.76963 13.0382 2.76963C12.4745 2.76963 12.0179 3.19935 12.0179 3.72924ZM5.06587 14.5118C4.23713 14.4763 3.7867 14.3464 3.48734 14.2365C3.09047 14.0911 2.80759 13.9179 2.50959 13.6381C2.21229 13.3583 2.02759 13.0921 1.87378 12.7186C1.75706 12.4368 1.61905 12.0129 1.58128 11.233C1.54009 10.3897 1.53185 10.1363 1.53185 8C1.53185 5.86365 1.54077 5.61099 1.58128 4.76704C1.61905 3.98708 1.75774 3.56381 1.87378 3.28142C2.02827 2.90792 2.21229 2.64168 2.50959 2.36123C2.8069 2.08142 3.08979 1.90759 3.48734 1.76284C3.7867 1.65299 4.23713 1.5231 5.06587 1.48756C5.96191 1.44879 6.23107 1.44103 8.50034 1.44103C10.7703 1.44103 11.0388 1.44943 11.9355 1.48756C12.7642 1.5231 13.214 1.65363 13.514 1.76284C13.9109 1.90759 14.1938 2.08142 14.4918 2.36123C14.7891 2.64103 14.9731 2.90792 15.1276 3.28142C15.2443 3.56317 15.3823 3.98708 15.4201 4.76704C15.4613 5.61099 15.4695 5.86365 15.4695 8C15.4695 10.1357 15.4613 10.389 15.4201 11.233C15.3823 12.0129 15.2436 12.4368 15.1276 12.7186C14.9731 13.0921 14.7891 13.3583 14.4918 13.6381C14.1945 13.9179 13.9109 14.0911 13.514 14.2365C13.2147 14.3464 12.7642 14.4763 11.9355 14.5118C11.0395 14.5506 10.7703 14.5583 8.50034 14.5583C6.23107 14.5583 5.96191 14.5506 5.06587 14.5118V14.5118ZM4.99584 0.0484653C4.09088 0.0872375 3.47292 0.222294 2.93255 0.420032C2.37364 0.624233 1.89987 0.898223 1.42679 1.34281C0.9544 1.7874 0.663274 2.23328 0.446302 2.75994C0.236197 3.2685 0.0926936 3.85008 0.0514964 4.70178C0.00961267 5.55477 0 5.82746 0 8C0 10.1725 0.00961267 10.4452 0.0514964 11.2982C0.0926936 12.1499 0.236197 12.7315 0.446302 13.2401C0.663274 13.7661 0.953714 14.2126 1.42679 14.6572C1.89919 15.1018 2.37296 15.3751 2.93255 15.58C3.47361 15.7777 4.09088 15.9128 4.99584 15.9515C5.90286 15.9903 6.19193 16 8.50034 16C10.8094 16 11.0985 15.991 12.0048 15.9515C12.9098 15.9128 13.5278 15.7777 14.0681 15.58C14.627 15.3751 15.1008 15.1018 15.5739 14.6572C16.0463 14.2126 16.3367 13.7661 16.5544 13.2401C16.7645 12.7315 16.9087 12.1499 16.9492 11.2982C16.9904 10.4446 17 10.1725 17 8C17 5.82746 16.9904 5.55477 16.9492 4.70178C16.908 3.85008 16.7645 3.2685 16.5544 2.75994C16.3367 2.23393 16.0463 1.78805 15.5739 1.34281C15.1015 0.898223 14.627 0.624233 14.0688 0.420032C13.5278 0.222294 12.9098 0.0865913 12.0055 0.0484653C11.0992 0.00969305 10.8094 0 8.50103 0C6.19193 0 5.90286 0.00904685 4.99584 0.0484653" fill="black"/>
</svg>
