<svg width="98" height="90" viewBox="0 0 98 90" fill="none" xmlns="http://www.w3.org/2000/svg">
<path d="M93.9205 0H79.1623C77.4625 0 75.9426 0.974447 75.3427 2.42692L55.2051 51.4802H16.1698L9.13067 21.6585H48.326C50.5857 21.6585 52.4055 19.9854 52.4055 17.9078C52.4055 15.8302 50.5857 14.1571 48.326 14.1571H4.07128C0.0717561 14.1571 -0.188213 17.5952 0.0717561 18.6983L8.8707 56.0399C9.27065 57.7682 10.9305 59 12.8702 59H58.0048C59.7046 59 61.2244 58.0256 61.8243 56.5731L81.9819 7.5014H93.9205C96.1802 7.5014 98 5.8283 98 3.7507C98 1.67311 96.1602 0 93.9205 0Z" fill="#21A8FB"/>
<path d="M21.8947 66C14.654 66 8.75781 71.3842 8.75781 78C8.75781 84.6158 14.654 90 21.8947 90C29.1353 90 35.0315 84.6158 35.0315 78C35.0315 71.3842 29.1353 66 21.8947 66ZM21.8947 82.8211C18.9754 82.8211 16.5938 80.6569 16.5938 78.0176C16.5938 75.3607 18.9754 73.2141 21.8947 73.2141C24.814 73.2141 27.1763 75.3783 27.1763 78.0176C27.1763 80.6569 24.814 82.8211 21.8947 82.8211Z" fill="#21A8FB"/>
<path d="M55.8317 66C48.591 66 42.6948 71.3842 42.6948 78C42.6948 84.6158 48.591 90 55.8317 90C63.0723 90 68.9685 84.6158 68.9685 78C68.9685 71.3842 63.0723 66 55.8317 66ZM55.8317 82.8211C52.9124 82.8211 50.5308 80.6569 50.5308 78.0176C50.5308 75.3607 52.9124 73.2141 55.8317 73.2141C58.751 73.2141 61.1133 75.3783 61.1133 78.0176C61.1133 80.6569 58.751 82.8211 55.8317 82.8211Z" fill="#21A8FB"/>
<rect x="21" y="30" width="33" height="4" fill="#21A8FB"/>
<rect x="27" y="40" width="21" height="4" fill="#21A8FB"/>
</svg>
