<svg width="129" height="119" viewBox="0 0 129 119" fill="none" xmlns="http://www.w3.org/2000/svg">
<path d="M22.1875 19.7449C22.1875 14.2657 26.9713 9.87244 32.9375 9.87244C38.9038 9.87244 43.6875 14.2657 43.6875 19.7449C43.6875 25.2241 38.9038 29.6173 32.9375 29.6173C26.9713 29.6173 22.1875 25.2241 22.1875 19.7449ZM51.75 54.0516V44.426C51.75 38.9962 46.9125 34.5536 41 34.5536H24.875C18.9625 34.5536 14.125 38.9962 14.125 44.426V74.0434H24.875V108.597H43.6875V108.054C37.0225 101.834 32.9375 93.2946 32.9375 83.9158C32.9375 71.1804 40.5163 60.0245 51.75 54.0516ZM86.6875 83.9158C86.6875 92.0606 79.4313 98.7245 70.5625 98.7245C61.6938 98.7245 54.4375 92.0606 54.4375 83.9158C54.4375 78.4366 57.7163 73.7472 62.5 71.1804V60.5181C51.6425 63.6773 43.6875 72.908 43.6875 83.9158C43.6875 97.5398 55.7275 108.597 70.5625 108.597C85.3975 108.597 97.4375 97.5398 97.4375 83.9158H86.6875ZM103.028 69.1071H78.625V39.4898H67.875V78.9796H97.2225L110.499 97.293L119.421 91.8138L103.028 69.1071Z" fill="#21A8FB"/>
</svg>
