<svg width="22" height="15" viewBox="0 0 22 15" fill="none" xmlns="http://www.w3.org/2000/svg">
<path d="M11.268 14.5904L6.95959 14.5118C5.56463 14.4844 4.1662 14.5391 2.79859 14.2552C0.718144 13.8312 0.570758 11.7518 0.416533 10.0077C0.204028 7.55562 0.286295 5.05905 0.68732 2.62746C0.913712 1.26308 1.80466 0.44895 3.18247 0.360356C7.8336 0.0388384 12.5157 0.0769417 17.1565 0.226941C17.6466 0.240692 18.1401 0.31585 18.6234 0.401399C21.009 0.818648 21.0672 3.17498 21.2218 5.15856C21.3761 7.16262 21.311 9.17696 21.0162 11.1674C20.7797 12.8154 20.3272 14.1974 18.4177 14.3308C16.0253 14.5053 13.6877 14.6457 11.2885 14.601C11.2886 14.5904 11.2748 14.5904 11.268 14.5904ZM8.73506 10.4181C10.538 9.38522 12.3065 8.36954 14.0991 7.34358C12.2928 6.3107 10.5277 5.29502 8.73506 4.26906V10.4181Z" fill="black"/>
</svg>
