<svg width="114" height="156" viewBox="0 0 114 156" fill="none" xmlns="http://www.w3.org/2000/svg">
<path d="M28.5 156C44.232 156 57 144.144 57 129.536V103.071H28.5C12.768 103.071 0 114.927 0 129.536C0 144.144 12.768 156 28.5 156Z" fill="#0ACF83"/>
<path d="M0 78C0 64.1606 12.768 52.9286 28.5 52.9286H57V103.071H28.5C12.768 103.071 0 91.8394 0 78Z" fill="#A259FF"/>
<path d="M0 26.4643C0 11.856 12.768 0 28.5 0H57V52.9286H28.5C12.768 52.9286 0 41.0726 0 26.4643Z" fill="#F24E1E"/>
<path d="M57 0H85.5C101.232 0 114 11.856 114 26.4643C114 41.0726 101.232 52.9286 85.5 52.9286H57V0Z" fill="#FF7262"/>
<path d="M114 78C114 91.8394 101.232 103.071 85.5 103.071C69.768 103.071 57 91.8394 57 78C57 64.1606 69.768 52.9286 85.5 52.9286C101.232 52.9286 114 64.1606 114 78Z" fill="#1ABCFE"/>
</svg>
