<svg width="423" height="346" viewBox="0 0 423 346" fill="none" xmlns="http://www.w3.org/2000/svg">
<path d="M77.5502 340.15C77.6502 329.1 78.5002 319.3 79.9502 313.75C80.2002 312.65 80.7002 310.7 80.9502 309.4C81.6502 306.15 83.6502 300.3 85.4002 296.45C86.2002 294.7 87.1502 292.45 87.5002 291.5C88.9002 287.95 95.5002 277.8 100 272.25C109.8 260.25 125.6 248.95 139.25 244.15C141.2 243.5 143.2 242.75 143.75 242.5C145.15 241.85 151.5 240.15 156.25 239.2C158.5 238.75 164.35 238.25 169.5 238.1C178.75 237.75 178.75 237.75 178.9 225.55C179.05 211.85 179.35 213.05 175 210.95C168.1 207.7 156.75 197.6 150.8 189.5C145.5 182.35 140.8 171.85 138.7 162.5C136.5 152.9 137.05 154 134.1 152.9C132.4 152.25 130.3 150.85 128.3 148.95C123.7 144.7 123.35 143.4 123.1 130C122.9 118.1 123.3 114.55 125.4 111C127.3 107.7 130.7 104.7 133.55 103.75C134.9 103.3 136 102.6 136 102.2C136 101.55 135.05 99.25 132.35 93.5C130.3 89.05 129.55 86.25 128.45 79.05C127 69.35 127 60.45 128.45 55.25C130.75 47.15 133.95 41.05 139.4 34.25C154.35 15.8 176.3 6.70004 196.35 10.8C200.85 11.7 200.85 11.7 203.3 9.95004C212 3.65004 226.15 1.45004 243.25 3.70004C254.45 5.15004 260 7.40004 267.4 13.3C276.1 20.25 281.85 27.7 291 43.75C297 54.3 299.15 57.8 300.9 59.95C304.9 64.85 306 65.5 310.15 65.5C313.5 65.5 315.85 64.8 317.35 63.45C317.95 62.8 318.55 62.4 318.6 62.55C321.05 66.6 322.8 71.65 323.55 76.95C325.3 89.25 319.5 103.95 310.6 109.9C307.4 112.05 303.1 114 301.55 114C301 114 300.4 114.25 300.25 114.5C300.1 114.8 299.95 120.65 300 127.55C300.05 139.5 299.95 140.3 298.9 143.1C297.45 146.95 292.85 151.45 288.9 152.9C286.3 153.85 286.25 153.95 285.65 156.55C282.75 169.3 282 171.9 279.3 177.65C273 191.15 260.45 204.6 248.05 211.05C244 213.2 244 213.2 244.1 225.45C244.25 237.75 244.25 237.75 253.75 238.05C259 238.2 264.25 238.6 265.5 238.9C266.75 239.2 269.45 239.8 271.5 240.25C275 241.05 279.95 242.5 282.25 243.5C282.8 243.7 284.05 244.2 285 244.55C290.1 246.35 298.95 251.3 306.8 256.75C316.2 263.2 330.6 280.35 335.1 290.4C335.65 291.7 336.65 293.9 337.25 295.25C339.55 300.2 341.3 305.4 343.1 312.75C344.6 319.05 345.65 330.45 345.55 340.4C345.5 346 345.5 346 211.5 346C77.5002 346 77.5002 346 77.5502 340.15V340.15Z" fill="#71D148"/>
<path d="M201.75 276.5C188 274.7 176.5 269.45 168.2 261.25C164.4 257.5 163.3 256 161.6 252.5C158.6 246.2 157.7 238.6 159.95 238.45C160.4 238.4 164.8 238.25 169.75 238.05C178.75 237.75 178.75 237.75 178.9 225.55C179.05 211.85 179.35 213.05 175 210.95C168.1 207.7 156.75 197.6 150.8 189.5C145.5 182.35 140.8 171.85 138.7 162.5C136.5 152.9 137.05 154 134.1 152.9C132.4 152.25 130.3 150.85 128.3 148.95C123.7 144.7 123.35 143.4 123.1 130C122.9 118.1 123.3 114.55 125.4 111C127.3 107.7 130.7 104.7 133.55 103.75C134.9 103.3 136 102.6 136 102.2C136 101.55 135.05 99.25 132.35 93.5C130.3 89.05 129.55 86.25 128.45 79.05C127 69.35 127 60.45 128.45 55.25C130.75 47.15 133.95 41.05 139.4 34.25C154.35 15.8 176.3 6.70004 196.35 10.8C200.85 11.7 200.85 11.7 203.3 9.95004C212 3.65004 226.15 1.45004 243.25 3.70004C254.45 5.15004 260 7.40004 267.4 13.3C276.1 20.25 281.85 27.7 291 43.75C297 54.3 299.15 57.8 300.9 59.95C304.9 64.85 306 65.5 310.15 65.5C313.5 65.5 315.85 64.8 317.35 63.45C317.95 62.8 318.55 62.4 318.6 62.55C321.05 66.6 322.8 71.65 323.55 76.95C325.3 89.25 319.5 103.95 310.6 109.9C307.4 112.05 303.1 114 301.55 114C301 114 300.4 114.25 300.25 114.5C300.1 114.8 299.95 120.65 300 127.55C300.05 139.5 299.95 140.3 298.9 143.1C297.45 146.95 292.85 151.45 288.9 152.9C286.3 153.85 286.25 153.95 285.65 156.55C282.75 169.3 282 171.9 279.3 177.65C273 191.15 260.45 204.6 248.05 211.05C244 213.2 244 213.2 244.1 225.45C244.25 237.75 244.25 237.75 253.5 238.05C258.6 238.25 263.15 238.4 263.7 238.45C264.55 238.5 264.6 238.85 264.4 242.65C264.1 247.5 262.8 251.45 260.05 255.7C253.25 266.1 239.4 273.75 222.85 276.2C217.4 277.05 206.95 277.15 201.75 276.5V276.5Z" fill="#72AC5A"/>
<path d="M199.85 267C189.65 264.75 183.3 262.1 177.7 257.6C171.8 252.85 168.45 247.2 167.7 240.9C167.35 238.05 167.35 238.05 173.05 237.9C178.75 237.75 178.75 237.75 178.9 225.55C179.05 211.85 179.35 213.05 175 210.95C168.1 207.7 156.75 197.6 150.8 189.5C145.5 182.35 140.8 171.85 138.7 162.5C136.5 152.9 137.05 154 134.1 152.9C132.4 152.25 130.3 150.85 128.3 148.95C123.7 144.7 123.35 143.4 123.1 130C122.9 118.1 123.3 114.55 125.4 111C127.3 107.7 130.7 104.7 133.55 103.75C134.9 103.3 136 102.6 136 102.2C136 101.55 135.05 99.25 132.35 93.5C130.3 89.05 129.55 86.25 128.45 79.05C127 69.35 127 60.45 128.45 55.25C130.75 47.15 133.95 41.05 139.4 34.25C154.35 15.8 176.3 6.70004 196.35 10.8C200.85 11.7 200.85 11.7 203.3 9.95004C212 3.65004 226.15 1.45004 243.25 3.70004C254.45 5.15004 260 7.40004 267.4 13.3C276.1 20.25 281.85 27.7 291 43.75C297 54.3 299.15 57.8 300.9 59.95C304.9 64.85 306 65.5 310.15 65.5C313.5 65.5 315.85 64.8 317.35 63.45C317.95 62.8 318.55 62.4 318.6 62.55C321.05 66.6 322.8 71.65 323.55 76.95C325.3 89.25 319.5 103.95 310.6 109.9C307.4 112.05 303.1 114 301.55 114C301 114 300.4 114.25 300.25 114.5C300.1 114.8 299.95 120.65 300 127.55C300.05 139.5 299.95 140.3 298.9 143.1C297.45 146.95 292.85 151.45 288.9 152.9C286.3 153.85 286.25 153.95 285.65 156.55C282.75 169.3 282 171.9 279.3 177.65C273 191.15 260.45 204.6 248.05 211.05C244 213.2 244 213.2 244.1 225.45C244.25 237.75 244.25 237.75 250.65 237.9C255.65 238 257 238.2 257 238.7C257 239.1 256.65 241.15 256.25 243.3C255.3 248.3 253.25 251.65 248.65 255.95C242.5 261.65 235.85 264.7 224.55 267C217.9 268.35 206.2 268.35 199.85 267V267Z" fill="#E9C6A7"/>
<path d="M204.3 228.95C199 228.15 193.95 226.5 188.3 223.65C185.25 222.15 182.15 220.45 181.4 219.95C180.7 219.4 179.85 219 179.55 219C179.2 219 179 217.85 179 216C179 214.35 179.15 213 179.3 213C179.45 213 182.4 214 185.8 215.25C194.05 218.25 201.45 219.5 210.65 219.5C220.45 219.5 226.85 218.5 234.75 215.7C238.3 214.45 241.85 213.3 242.65 213.15C244 212.9 244 212.9 244 216.95C244 220.3 243.85 221 243.2 221C242.8 221 240.7 221.9 238.6 222.95C227.7 228.5 215.6 230.6 204.3 228.95Z" fill="#C4A68C"/>
<path d="M207.05 155.45C201.85 154.55 197.45 151.75 195.75 148.2C194.25 145 194.25 145 210.95 145C219.1 145 226.05 145.2 226.45 145.45C228.2 146.55 224.55 151.65 220.5 153.75C218.7 154.65 212.9 156 211 155.95C210.3 155.9 208.55 155.7 207.05 155.45Z" fill="#C4A68C"/>
<path d="M206.15 189.05C200.05 187.5 193.8 180.1 193.15 173.7C192.85 171 192.85 171 211.4 171C223.8 171 230.05 171.15 230.25 171.5C230.75 172.25 229.55 176.85 228.25 179.5C226.8 182.4 222.2 186.75 219.15 188.1C216.55 189.3 209.15 189.8 206.15 189.05Z" fill="#463B32"/>
<path d="M172.6 128.45C167.6 125.2 167.9 117.2 173.15 114.6C175.95 113.2 177.7 113.2 180.5 114.65C187.85 118.35 185.05 129.5 176.75 129.5C175.05 129.5 173.7 129.15 172.6 128.45Z" fill="#5D5044"/>
<path d="M242.15 128.5C239.75 126.9 238.5 124.55 238.5 121.7C238.5 118.4 239.85 116.05 242.5 114.65C245.2 113.2 246.9 113.2 249.75 114.55C255.15 117.1 255.8 124.55 250.9 128.05C248.6 129.7 244.3 129.9 242.15 128.5Z" fill="#5D5044"/>
<path d="M275 119.5C269.1 118.2 265.55 116.9 260.05 113.95C253.35 110.35 244.3 104 242.05 101.35C241.25 100.4 238.4 100.25 235.05 101.05C232.4 101.65 231.15 101.3 230.7 99.85C229.9 97.55 230.95 96.3 234.15 95.75C236.3 95.35 236.4 95.05 234.95 93.7C231.85 90.9 228.65 86.15 216.5 66.5C209.85 55.65 209.8 56.05 216.2 72.1C218 76.7 219.5 80.6 219.5 80.75C219.5 80.9 218.2 80.35 216.65 79.55C206.4 74.4 198.15 63.55 195.8 52.25C195.15 49.25 195.15 49.25 193.4 52.75C189.45 60.45 184.55 66.6 177.5 72.6C172 77.3 167.1 80.8 166.65 80.35C166.5 80.2 168.05 77.6 170.1 74.65C172.15 71.7 174 68.95 174.25 68.55C174.75 67.7 174.9 67.55 167.75 73.05C165 75.1 160.15 78.6 157 80.75C153.55 83.15 149.25 86.7 146.2 89.7C141.9 94 140.85 95.4 139.2 98.85C138.1 101.1 137 103 136.75 103C136.45 103 135.95 102.1 135.65 101.05C135.3 99.95 134.15 97.3 133.1 95.15C130.45 89.65 129.6 86.75 128.45 79C127 69.35 127 60.4 128.45 55.25C130.75 47.15 133.95 41.05 139.4 34.25C154.35 15.8 176.3 6.70004 196.35 10.8C200.85 11.7 200.85 11.7 203.3 9.95004C212 3.65004 226.15 1.45004 243.25 3.70004C254.45 5.15004 260 7.40004 267.4 13.3C276.1 20.25 281.85 27.7 291 43.75C297 54.3 299.15 57.8 300.9 59.95C304.9 64.85 306 65.5 310.15 65.5C313.5 65.5 315.85 64.8 317.35 63.45C317.95 62.8 318.55 62.4 318.6 62.55C321.05 66.6 322.8 71.65 323.55 76.95C325.3 89.25 319.5 103.95 310.6 109.9C307.4 112.05 303.1 114 301.55 114C301 114 300.45 114.2 300.3 114.45C300.15 114.7 297.2 115.05 293.8 115.25C284.6 115.8 281.15 114.95 272.25 110.05C269.25 108.4 269.25 108.4 271.15 110.15C274.25 113 281.4 116.85 286.2 118.2C288.6 118.9 291 119.5 291.45 119.55C291.9 119.6 291.75 119.75 291 120C288.65 120.75 279.4 120.45 275 119.5V119.5Z" fill="#5D5044"/>
<path d="M153.25 100.3C152.8 99.6 152.6 98.75 152.85 98.2C154.25 94.45 161.5 89 168.1 86.8C172.9 85.15 181.1 84.65 186 85.65C188.65 86.2 191.55 87.2 191.9 87.7C192.85 88.95 192.9 90 192.05 91.1C191.1 92.25 191.1 92.25 186.95 91.35C175.85 89.05 166.65 91.4 159.45 98.3C155.9 101.75 154.5 102.2 153.25 100.3V100.3Z" fill="#5D5044"/>
<path d="M275 119.5C269.1 118.2 265.55 116.9 260.05 113.95C253.35 110.35 244.3 104 242.05 101.35C241.7 100.85 240.85 100.5 240.25 100.5C239.35 100.5 239.15 100.3 239.35 99.5C239.5 98.95 239.35 98.5 239.1 98.5C238.8 98.5 237.7 97.4 236.65 96.05C235.6 94.7 233.5 92.05 231.95 90.15C229.25 86.95 226.6 82.8 216.5 66.5C209.85 55.65 209.8 56.05 216.2 72.1C218 76.7 219.5 80.6 219.5 80.75C219.5 80.9 218.2 80.35 216.65 79.55C206.4 74.4 198.15 63.55 195.8 52.25C195.2 49.25 195.2 49.25 193.5 52.5C188.6 62.2 182.15 69.5 171.3 77.65C169.1 79.3 168.75 79.45 168.35 78.7C168 78.1 168.6 76.85 170.85 73.55C172.5 71.2 174 68.95 174.25 68.55C174.75 67.7 174.9 67.55 167.75 73.05C165 75.1 160.15 78.6 157 80.75C153.55 83.15 149.25 86.7 146.2 89.7C141.9 94 140.85 95.4 139.2 98.85C138.1 101.1 137 103 136.75 103C136.45 103 135.95 102.1 135.65 101.05C135.3 99.95 134.15 97.3 133.1 95.15C130.45 89.65 129.6 86.75 128.45 79C127 69.35 127 60.4 128.45 55.25C130.75 47.15 133.95 41.05 139.4 34.25C154.35 15.8 176.3 6.70004 196.35 10.8C200.85 11.7 200.85 11.7 203.3 9.95004C212 3.65004 226.15 1.45004 243.25 3.70004C254.45 5.15004 260 7.40004 267.4 13.3C276.1 20.25 281.85 27.7 291 43.75C297 54.3 299.15 57.8 300.9 59.95C304.9 64.85 306 65.5 310.15 65.5C313.5 65.5 315.85 64.8 317.35 63.45C317.95 62.8 318.55 62.4 318.6 62.55C321.05 66.6 322.8 71.65 323.55 76.95C325.3 89.25 319.5 103.95 310.6 109.9C307.4 112.05 303.1 114 301.55 114C301 114 300.45 114.2 300.3 114.45C300.15 114.7 297.2 115.05 293.8 115.25C284.6 115.8 281.15 114.95 272.25 110.05C269.25 108.4 269.25 108.4 271.15 110.15C274.6 113.3 284.5 118.5 287.1 118.5C287.65 118.5 287.85 118.8 287.65 119.5C287.4 120.4 287 120.5 283.3 120.45C281.1 120.45 277.35 120 275 119.5V119.5Z" fill="#463B32"/>
<path d="M275 119.5C269.1 118.2 265.55 116.9 260.05 113.95C253 110.2 244.8 104.4 242.1 101.3C241.5 100.55 240.75 100.1 240.5 100.25C240.2 100.4 240 100.3 240 99.95C240 99.65 238.5 97.7 236.65 95.65C230.05 88.4 229.5 87.55 217 67.25C209.8 55.55 209.75 55.85 216.2 72.1C218 76.7 219.5 80.6 219.5 80.75C219.5 80.9 218.2 80.35 216.65 79.55C206.4 74.4 198.1 63.5 195.8 52.25C195.2 49.25 195.2 49.25 193 53.5C190.25 58.75 185.8 64.8 181.8 68.75C177.75 72.7 169.85 79.05 169.5 78.55C169.35 78.3 168.95 78.05 168.6 77.95C168.15 77.8 168.75 76.6 170.4 74.25C171.75 72.3 173.25 70.1 173.8 69.25C174.95 67.5 175.4 67.2 167.75 73.05C165 75.1 160.15 78.6 157 80.75C153.55 83.15 149.25 86.7 146.2 89.7C141.9 94 140.85 95.4 139.2 98.85C138.1 101.1 137 103 136.75 103C136.45 103 135.95 102.1 135.65 101.05C135.3 99.95 134.15 97.3 133.1 95.15C130.45 89.65 129.6 86.75 128.45 79C127 69.35 127 60.4 128.45 55.25C130.75 47.15 133.95 41.05 139.4 34.25C154.35 15.8 176.3 6.70004 196.35 10.8C200.85 11.7 200.85 11.7 203.3 9.95004C212 3.65004 226.15 1.45004 243.25 3.70004C257 5.50004 263.25 8.65004 273.5 18.95C279.8 25.3 283.5 30.55 291 43.75C297 54.3 299.15 57.8 300.9 59.95C304.9 64.85 306 65.5 310.15 65.5C313.5 65.5 315.85 64.8 317.35 63.45C317.95 62.8 318.55 62.4 318.6 62.55C321.05 66.6 322.8 71.65 323.55 76.95C325.3 89.25 319.5 103.95 310.6 109.9C307.4 112.05 303.1 114 301.55 114C301 114 300.45 114.2 300.3 114.45C300.15 114.7 297.2 115.05 293.8 115.25C284.6 115.8 281.15 114.95 272.25 110.05C269.25 108.4 269.25 108.4 271.15 110.15C274.6 113.3 284.5 118.5 287.1 118.5C287.65 118.5 287.85 118.8 287.65 119.5C287.4 120.4 287 120.5 283.3 120.45C281.1 120.45 277.35 120 275 119.5V119.5Z" fill="#241E1D"/>
<path d="M288.85 119.95C289.2 119.6 289.6 119.45 289.75 119.6C289.9 119.75 289.65 120.05 289.15 120.2C288.45 120.5 288.4 120.45 288.85 119.95V119.95Z" fill="#49302B"/>
<path d="M290.65 119.65C290.85 119.5 291.15 119.5 291.35 119.65C291.5 119.85 291.35 120 291 120C290.65 120 290.5 119.85 290.65 119.65V119.65Z" fill="#49302B"/>
</svg>
