<svg width="36" height="29" viewBox="0 0 36 29" fill="none" xmlns="http://www.w3.org/2000/svg">
<path d="M13.4178 23.4875C11.866 23.4875 10.6035 24.7239 10.6035 26.2437C10.6035 27.7636 11.866 29 13.4178 29C14.9696 29 16.232 27.7636 16.232 26.2437C16.232 24.7239 14.9695 23.4875 13.4178 23.4875ZM13.4178 27.4609C12.7324 27.4609 12.1749 26.9148 12.1749 26.2436C12.1749 25.5724 12.7325 25.0263 13.4178 25.0263C14.1031 25.0263 14.6607 25.5725 14.6607 26.2436C14.6607 26.9149 14.1031 27.4609 13.4178 27.4609Z" fill="black"/>
<path d="M23.2889 23.4875C21.7371 23.4875 20.4746 24.7239 20.4746 26.2437C20.4746 27.7636 21.7371 29 23.2889 29C24.8408 29 26.1033 27.7636 26.1033 26.2437C26.1032 24.7239 24.8407 23.4875 23.2889 23.4875ZM23.2889 27.4609C22.6036 27.4609 22.046 26.9148 22.046 26.2436C22.046 25.5724 22.6036 25.0263 23.2889 25.0263C23.9743 25.0263 24.5319 25.5725 24.5319 26.2436C24.5319 26.9149 23.9743 27.4609 23.2889 27.4609Z" fill="black"/>
<path d="M23.9824 8.97607H12.7232C12.2892 8.97607 11.9375 9.32057 11.9375 9.74555C11.9375 10.1705 12.2893 10.515 12.7232 10.515H23.9824C24.4164 10.515 24.7681 10.1705 24.7681 9.74555C24.7681 9.32051 24.4164 8.97607 23.9824 8.97607Z" fill="black"/>
<path d="M23.3696 12.9719H13.336C12.902 12.9719 12.5503 13.3164 12.5503 13.7413C12.5503 14.1663 12.902 14.5108 13.336 14.5108H23.3696C23.8035 14.5108 24.1552 14.1663 24.1552 13.7413C24.1552 13.3164 23.8035 12.9719 23.3696 12.9719Z" fill="black"/>
<path d="M31.6464 5.54754C31.3467 5.18738 30.9027 4.98085 30.4283 4.98085H5.95491L5.46066 2.63103C5.35747 2.14085 5.01609 1.72927 4.54728 1.52991L1.09872 0.0639055C0.700591 -0.105465 0.237903 0.0734543 0.0652157 0.463245C-0.107659 0.853158 0.0750282 1.30636 0.472966 1.47549L3.92159 2.94155L7.72322 21.0147C7.87297 21.7265 8.52022 22.2431 9.26228 22.2431H28.0852C28.5191 22.2431 28.8709 21.8986 28.8709 21.4736C28.8709 21.0486 28.5191 20.7042 28.0852 20.7042H9.26235L8.79991 18.5057H28.2307C28.9727 18.5057 29.62 17.9891 29.7697 17.2773L31.9674 6.83016C32.063 6.37524 31.9461 5.90765 31.6464 5.54754ZM28.2307 16.9669H8.47622L6.27866 6.51976L30.4282 6.51982L28.2307 16.9669Z" fill="black"/>
<circle cx="31.5" cy="4.5" r="4.5" fill="#21A8FB"/>
</svg>
